<?xml version="1.0" encoding="UTF-8" standalone="no"?>
<!-- Created with Inkscape (http://www.inkscape.org/) -->
<svg
   xmlns:dc="http://purl.org/dc/elements/1.1/"
   xmlns:cc="http://web.resource.org/cc/"
   xmlns:rdf="http://www.w3.org/1999/02/22-rdf-syntax-ns#"
   xmlns:svg="http://www.w3.org/2000/svg"
   xmlns="http://www.w3.org/2000/svg"
   xmlns:xlink="http://www.w3.org/1999/xlink"
   xmlns:sodipodi="http://sodipodi.sourceforge.net/DTD/sodipodi-0.dtd"
   xmlns:inkscape="http://www.inkscape.org/namespaces/inkscape"
   version="1.0"
   width="343pt"
   height="340pt"
   id="svg13945"
   sodipodi:version="0.32"
   inkscape:version="0.45"
   sodipodi:docname="Questionmark.svg"
   sodipodi:docbase="/home/jaesharp/Desktop"
   inkscape:output_extension="org.inkscape.output.svg.inkscape"
   sodipodi:modified="true">
  <metadata
     id="metadata2236">
    <rdf:RDF>
      <cc:Work
         rdf:about="">
        <dc:format>image/svg+xml</dc:format>
        <dc:type
           rdf:resource="http://purl.org/dc/dcmitype/StillImage" />
      </cc:Work>
    </rdf:RDF>
  </metadata>
  <sodipodi:namedview
     inkscape:window-height="1015"
     inkscape:window-width="1509"
     inkscape:pageshadow="2"
     inkscape:pageopacity="0.0"
     guidetolerance="10.0"
     gridtolerance="10.0"
     objecttolerance="10.0"
     borderopacity="1.0"
     bordercolor="#666666"
     pagecolor="#ffffff"
     id="base"
     inkscape:zoom="0.95764706"
     inkscape:cx="214.52442"
     inkscape:cy="78.620141"
     inkscape:window-x="5"
     inkscape:window-y="71"
     inkscape:current-layer="svg13945" />
  <defs
     id="defs13947">
    <filter
       id="filter9065">
      <feGaussianBlur
         id="feGaussianBlur9067"
         stdDeviation="10.07462"
         inkscape:collect="always" />
    </filter>
    <linearGradient
       id="linearGradient4140">
      <stop
         style="stop-color:#185fdc;stop-opacity:1"
         offset="0"
         id="stop4142" />
      <stop
         style="stop-color:#76bbff;stop-opacity:1"
         offset="1"
         id="stop4144" />
    </linearGradient>
    <linearGradient
       x1="450.10458"
       y1="551.20123"
       x2="394.05804"
       y2="306.24689"
       id="linearGradient4146"
       xlink:href="#linearGradient4140"
       gradientUnits="userSpaceOnUse" />
  </defs>
  <g
     id="layer1">
    <path
       d="M 636.2045 353.79074 A 259.06165 259.06165 0 1 1  118.08121,353.79074 A 259.06165 259.06165 0 1 1  636.2045 353.79074 z"
       transform="matrix(0.729,0,0,0.729,-53.702799,-40.741252)"
       style="opacity:0.77222224;fill:#000000;fill-opacity:0.51315792;stroke:#000000;stroke-width:0;stroke-linejoin:round;stroke-miterlimit:4;stroke-dasharray:none;stroke-opacity:1;filter:url(#filter9065)"
       id="path8026" />
    <path
       d="M 632.16389 353.79074 A 255.02104 255.02104 0 1 1  122.12181,353.79074 A 255.02104 255.02104 0 1 1  632.16389 353.79074 z"
       transform="matrix(0.729,0,0,0.729,-64.117082,-48.031252)"
       style="fill:#2655b2;fill-opacity:1;stroke:#000000;stroke-width:0;stroke-linejoin:round;stroke-miterlimit:4;stroke-dasharray:none;stroke-opacity:1"
       id="path2168" />
    <path
       d="M 622.85715 356.64789 A 242.85715 242.85715 0 1 1  137.14285,356.64789 A 242.85715 242.85715 0 1 1  622.85715 356.64789 z"
       transform="matrix(0.729,0,0,0.729,-66.19994,-50.11411)"
       style="fill:#daebff;fill-opacity:1;stroke:#000000;stroke-width:0;stroke-linejoin:round;stroke-miterlimit:4;stroke-dasharray:none;stroke-opacity:1"
       id="path3141" />
    <path
       d="M 597.14287 352.36218 A 218.57143 218.57143 0 1 1  160.00002,352.36218 A 218.57143 218.57143 0 1 1  597.14287 352.36218 z"
       transform="matrix(0.729,0,0,0.729,-66.19994,-45.948393)"
       style="fill:url(#linearGradient4146);fill-opacity:1;stroke:#000000;stroke-width:0;stroke-linejoin:round;stroke-miterlimit:4;stroke-dasharray:none;stroke-opacity:1"
       id="path4114" />
    <path
       d="M 365.24122,168.10222 C 365.24122,177.64069 293.15424,226.88012 213.19084,228.55968 C 123.7909,230.39749 51.777349,178.37328 52.327284,175.51684 C 67.085999,98.857462 143.31416,48.155468 209.38602,48.454592 C 272.33093,48.742598 346.98467,91.172636 365.24122,168.10222 z "
       style="opacity:0.85;fill:#ffffff;fill-opacity:0.48026315;stroke:#000000;stroke-width:0;stroke-linecap:butt;stroke-linejoin:bevel;stroke-miterlimit:4;stroke-opacity:1"
       id="path7085" />
  </g>
  <path
     id="path2379"
     d="M 229.12652,328.0557 L 229.12652,308.05873 L 209.43873,308.05873 L 191.75092,308.05873 L 192.13025,309.47955 C 192.33887,310.26099 192.51345,320.35962 192.51817,329.47652 L 192.52676,346.05267 L 209.82664,346.05267 L 229.12652,346.05267 L 229.12652,328.0557 z M 223.65009,271.69677 C 224.66449,255.26868 226.21796,247.86094 230.30057,239.98387 C 233.75649,233.31594 237.88821,228.5731 250.3196,217.00376 C 278.17062,191.08405 287.8176,178.31059 292.3536,161.34692 C 293.89804,155.57109 294.04213,154.03526 294.04213,143.34995 C 294.04213,132.73379 293.89195,131.10841 292.39649,125.53875 C 286.34762,103.01058 269.17707,84.372831 246.60528,75.834726 C 222.14511,66.582324 188.5686,67.898451 167.09078,78.951531 C 146.77571,89.406228 133.08179,108.15758 127.20921,133.56214 C 125.19666,142.26836 124.66109,146.41908 125.46671,147.06672 C 126.12791,147.59828 152.12733,150.95718 155.42617,150.93724 C 156.91309,150.92825 157.08525,150.58222 158.12456,145.51406 C 164.46045,114.61658 181.33712,97.805508 207.62484,96.206166 C 221.84963,95.340726 236.14043,100.47291 246.02479,109.99657 C 253.30215,117.00836 257.68814,124.0339 260.55642,133.2736 C 262.46433,139.41961 262.61724,151.09392 260.86578,156.89359 C 257.41621,168.31642 252.39316,174.50061 227.48385,197.99224 C 212.20317,212.40324 206.42155,219.71593 201.42149,230.95625 C 198.39901,237.75088 196.64463,243.71801 195.33811,251.64752 C 194.30712,257.90479 193.36619,275.84744 193.98426,277.46423 C 194.32799,278.36335 196.09533,278.4851 208.80273,278.4851 L 223.23093,278.4851 L 223.65009,271.69677 z "
     style="fill:#ffffff;fill-opacity:1"
     sodipodi:nodetypes="cccccccccccsssssssssssssssssssccc" />
</svg>
